# xmcd CD database file
#
# Track frame offsets:
#	150
#	21442
#	44053
#	66351
#	89555
#	111059
#	135623
#	156615
#	178586
#	200996
#	222891
#	243859
#	265691
#	286081
#	310929
#
# Disc length: 4401 seconds
#
# Revision: 2
# Processed by: cddbd v1.5.2PL0 Copyright (c) Steve Scherf et al.
# Submitted via: CDex 1.70beta2
#
DISCID=e8112f0f
DTITLE=Gilberto Santarosa - Duros ps' Gozar
DYEAR=1900
DGENRE=Salsa
TTITLE0=Tengo Una Muneca
TTITLE1=Para Decir Adios
TTITLE2=Yo Solo, Tu Sola
TTITLE3=Vivir Sin Ella
TTITLE4=Impaciencia
TTITLE5=Dejame Decirte
TTITLE6=Toda La Noche Oliendo a Ti
TTITLE7=Peligro
TTITLE8=Cosas Nuevas
TTITLE9=Te Propongo
TTITLE10=Mal Herido
TTITLE11=Que Alguien Me Diga
TTITLE12=La Sigo Amando Tanto
TTITLE13=Conciencia
TTITLE14=Mi Apartamento
EXTD=
EXTT0=
EXTT1=
EXTT2=
EXTT3=
EXTT4=
EXTT5=
EXTT6=
EXTT7=
EXTT8=
EXTT9=
EXTT10=
EXTT11=
EXTT12=
EXTT13=
EXTT14=
PLAYORDER=
